<svg width="40" height="40" viewBox="0 0 40 40" fill="none" xmlns="http://www.w3.org/2000/svg">
<g id="material-symbols:add-shopping-cart">
<rect width="40" height="40" rx="5" fill="#D5906E" fill-opacity="0.3"/>
<path id="Vector" d="M19.8843 16.8252V13.0157H15.919V10.476H19.8843V6.6665H22.5278V10.476H26.4931V13.0157H22.5278V16.8252H19.8843ZM14.5972 33.3332C13.8703 33.3332 13.2481 33.0847 12.7309 32.5878C12.2128 32.09 11.9537 31.4919 11.9537 30.7935C11.9537 30.0951 12.2128 29.497 12.7309 28.9992C13.2481 28.5023 13.8703 28.2538 14.5972 28.2538C15.3242 28.2538 15.9463 28.5023 16.4636 28.9992C16.9817 29.497 17.2408 30.0951 17.2408 30.7935C17.2408 31.4919 16.9817 32.09 16.4636 32.5878C15.9463 33.0847 15.3242 33.3332 14.5972 33.3332ZM27.8149 33.3332C27.0879 33.3332 26.4658 33.0847 25.9486 32.5878C25.4304 32.09 25.1714 31.4919 25.1714 30.7935C25.1714 30.0951 25.4304 29.497 25.9486 28.9992C26.4658 28.5023 27.0879 28.2538 27.8149 28.2538C28.5419 28.2538 29.1644 28.5023 29.6826 28.9992C30.1998 29.497 30.4584 30.0951 30.4584 30.7935C30.4584 31.4919 30.1998 32.09 29.6826 32.5878C29.1644 33.0847 28.5419 33.3332 27.8149 33.3332ZM14.5972 26.984C13.6059 26.984 12.8459 26.5658 12.3172 25.7294C11.7885 24.8938 11.7775 24.0633 12.2841 23.2379L14.0685 20.1268L9.31016 10.476H6.66663V7.93635H10.9954L16.6129 19.3649H25.8983L31.0202 10.476L33.3333 11.6824L28.2114 20.5713C27.9691 20.9945 27.6497 21.3226 27.2532 21.5554C26.8566 21.7882 26.405 21.9046 25.8983 21.9046H16.0512L14.5972 24.4443H30.4584V26.984H14.5972Z" fill="#402101"/>
</g>
</svg>
